<svg id="svg10654" height="512" viewBox="0 0 6.3499999 6.3500002" width="512" xmlns="http://www.w3.org/2000/svg" xmlns:svg="http://www.w3.org/2000/svg"><g id="layer1" transform="translate(0 -290.65)"><path id="path9345" d="m1.846923 291.17602a.26460982.26460982 0 0 0 -.181901.0801l-1.05833339 1.05884a.26460982.26460982 0 0 0 0 .37466l1.05833339 1.05885a.26460982.26460982 0 1 0 .3731022-.37517l-.6061631-.6072h4.1237801a.264845.264845 0 1 0 0-.52969h-4.1211951l.6035781-.60513a.26460982.26460982 0 0 0 -.1912012-.45526zm2.6484158 2.64634a.26460982.26460982 0 0 0 -.1834488.45321l.6071975.60771h-4.12481459a.2646485.2646485 0 0 0 0 .52917h4.12326419l-.6056471.6072a.26460982.26460982 0 1 0 .3731021.3731l1.0583334-1.05833a.26460982.26460982 0 0 0 0-.37311l-1.0583334-1.05885a.26460982.26460982 0 0 0 -.1896533-.0801z" font-variant-ligatures="normal" font-variant-position="normal" font-variant-caps="normal" font-variant-numeric="normal" font-variant-alternates="normal" font-feature-settings="normal" text-indent="0" text-align="start" text-decoration-line="none" text-decoration-style="solid" text-decoration-color="rgb(0,0,0)" text-transform="none" text-orientation="mixed" white-space="normal" shape-padding="0" isolation="auto" mix-blend-mode="normal" solid-color="rgb(0,0,0)" solid-opacity="1" vector-effect="none"/></g></svg>